# xmcd CD database file
#
# Track frame offsets:
#	150
#	17840
#	32300
#	44532
#	62657
#	76332
#	92645
#	110737
#	125397
#	137025
#	155272
#	168395
#	184137
#	195122
#	211707
#	227207
#	246862
#	262224
#	279609
#	290634
#	306957
#	321792
#	336684
#
# Disc length: 4696 seconds
#
# Revision: 0
# Processed by: cddbd v1.5.2PL0 Copyright (c) Steve Scherf et al.
# Submitted via: CDex 1.51
#
DISCID=50125617
DTITLE=Sarah Vaughan - Sarah Vaughan Sings George Gershwin
DYEAR=1958
DGENRE=Jazz
TTITLE0=Isn't It a Pity?
TTITLE1=Of Thee I Sing
TTITLE2=I'll Build a Stairway to Paradise
TTITLE3=Someone to Watch over Me
TTITLE4=Bidin' My Time
TTITLE5=The Man I Love
TTITLE6=How Long Has This Been Going On?
TTITLE7=My One and Only (What Am I Gonna Do?)
TTITLE8=Lorelei
TTITLE9=I've Got a Crush on You
TTITLE10=Summertime
TTITLE11=Aren't You Kinda Glad We Did?
TTITLE12=They All Laughed
TTITLE13=Looking For a Boy
TTITLE14=He Loves and She Loves
TTITLE15=My Man's Gone Now
TTITLE16=I Won't Say I Will
TTITLE17=A Foggy Day
TTITLE18=Let's Call the Whole Thing Off
TTITLE19=Things Are Looking Up
TTITLE20=Do It Again
TTITLE21=Love Walked In
TTITLE22=Of Thee I Sing [Bonus 1999 CD]
EXTD=YEAR: 1958
EXTT0=
EXTT1=
EXTT2=
EXTT3=
EXTT4=
EXTT5=
EXTT6=
EXTT7=
EXTT8=
EXTT9=
EXTT10=
EXTT11=
EXTT12=
EXTT13=
EXTT14=
EXTT15=
EXTT16=
EXTT17=
EXTT18=
EXTT19=
EXTT20=
EXTT21=
EXTT22=
PLAYORDER=
